name rise37.2698peak67.6939fall79.5734.mot
datacolumns 19
datarows 35
range 21.53492100000000 21.59158500000000
endheader
time	ground_force1_vx	ground_force1_vy	ground_force1_vz	ground_force1_px	ground_force1_py	ground_force1_pz	ground_force2_vx	ground_force2_vy	ground_force2_vz	ground_force2_px	ground_force2_py	ground_force2_pz	ground_torque1_x	ground_torque1_y	ground_torque1_z	ground_torque2_x	ground_torque2_y	ground_torque2_z	
21.53492100000000	-42.54267600000000	816.34492299999999	54.39772300000000	0.14914100000000	0.00000000000000	0.10676400000000	-5.41924500000000	20.26994600000000	4.37531500000000	0.00000000000000	0.00000000000000	0.00000000000000	0.00000000000000	23.72312400000000	0.00000000000000	0.00000000000000	1.54072000000000	0.00000000000000	
21.53659700000000	-43.13361500000000	814.98753599999998	54.35499500000000	0.14827200000000	0.00000000000000	0.10672100000000	-6.59063900000000	25.70865500000000	5.42052600000000	0.33603600000000	0.00000000000000	-0.06204400000000	0.00000000000000	23.70791600000000	0.00000000000000	0.00000000000000	3.33316700000000	0.00000000000000	
21.53825700000000	-43.73893000000000	813.51806199999999	54.28994900000000	0.14741900000000	0.00000000000000	0.10667500000000	-7.74458900000000	31.45611700000000	6.48541000000000	0.34242500000000	0.00000000000000	-0.06227800000000	0.00000000000000	23.69167800000000	0.00000000000000	0.00000000000000	4.04987600000000	0.00000000000000	
21.53991500000000	-44.35876400000000	811.93419200000005	54.20209100000000	0.14658300000000	0.00000000000000	0.10662600000000	-8.83998100000000	37.39007200000000	7.53899500000000	0.34841600000000	0.00000000000000	-0.06248100000000	0.00000000000000	23.67446900000000	0.00000000000000	0.00000000000000	4.77698500000000	0.00000000000000	
21.54158500000000	-44.99321700000000	810.23363500000005	54.09096800000000	0.14576400000000	0.00000000000000	0.10657300000000	-9.83942900000000	43.39252500000000	8.55227200000000	0.35405700000000	0.00000000000000	-0.06266000000000	0.00000000000000	23.65634300000000	0.00000000000000	0.00000000000000	5.49555200000000	0.00000000000000	
21.54324800000000	-45.64234400000000	808.41412400000002	53.95616700000000	0.14496400000000	0.00000000000000	0.10651600000000	-10.71174400000000	49.35853600000000	9.50016100000000	0.35938700000000	0.00000000000000	-0.06281900000000	0.00000000000000	23.63734900000000	0.00000000000000	0.00000000000000	6.18843500000000	0.00000000000000	
21.54492400000000	-46.30615900000000	806.47341300000005	53.79731800000000	0.14418200000000	0.00000000000000	0.10645500000000	-11.43362200000000	55.20289500000000	10.36292300000000	0.36443800000000	0.00000000000000	-0.06296100000000	0.00000000000000	23.61752400000000	0.00000000000000	0.00000000000000	6.84134700000000	0.00000000000000	
21.54658800000000	-46.98462400000000	804.40928399999996	53.61409300000000	0.14342000000000	0.00000000000000	0.10639000000000	-11.99047100000000	60.86423900000000	11.12694600000000	0.36923700000000	0.00000000000000	-0.06309100000000	0.00000000000000	23.59690100000000	0.00000000000000	0.00000000000000	7.44354300000000	0.00000000000000	
21.54824900000000	-47.67765200000000	802.21954700000003	53.40621100000000	0.14267700000000	0.00000000000000	0.10632100000000	-12.37638700000000	66.30657600000001	11.78490100000000	0.37380300000000	0.00000000000000	-0.06321100000000	0.00000000000000	23.57549900000000	0.00000000000000	0.00000000000000	7.98811000000000	0.00000000000000	
21.54992200000000	-48.38510200000000	799.90204300000005	53.17343300000000	0.14195400000000	0.00000000000000	0.10624800000000	-12.59344500000000	71.51847400000000	12.33536900000000	0.37815500000000	0.00000000000000	-0.06332300000000	0.00000000000000	23.55333000000000	0.00000000000000	0.00000000000000	8.47189500000000	0.00000000000000	
21.55159300000000	-49.10677800000000	797.45464500000003	52.91556900000000	0.14125200000000	0.00000000000000	0.10617100000000	-12.65043700000000	76.51036600000000	12.78203200000000	0.38230600000000	0.00000000000000	-0.06342900000000	0.00000000000000	23.53039300000000	0.00000000000000	0.00000000000000	8.89514000000000	0.00000000000000	
21.55325000000000	-49.84242400000000	794.87526200000002	52.63247400000000	0.14056900000000	0.00000000000000	0.10609000000000	-12.56129300000000	81.31052400000000	13.13259800000000	0.38626900000000	0.00000000000000	-0.06353100000000	0.00000000000000	23.50667700000000	0.00000000000000	0.00000000000000	9.26089400000000	0.00000000000000	
21.55491500000000	-50.59172300000000	792.16184199999998	52.32405100000000	0.13990700000000	0.00000000000000	0.10600500000000	-12.34334300000000	85.96026999999999	13.39757100000000	0.39005400000000	0.00000000000000	-0.06363100000000	0.00000000000000	23.48215700000000	0.00000000000000	0.00000000000000	9.57429000000000	0.00000000000000	
21.55658300000000	-51.35429300000000	789.31237199999998	51.99025000000000	0.13926500000000	0.00000000000000	0.10591600000000	-12.01560500000000	90.50893900000000	13.58901400000000	0.39366700000000	0.00000000000000	-0.06373100000000	0.00000000000000	23.45679600000000	0.00000000000000	0.00000000000000	9.84177700000000	0.00000000000000	
21.55825700000000	-52.12968700000000	786.32488599999999	51.63106800000000	0.13864200000000	0.00000000000000	0.10582200000000	-11.59723200000000	95.00906500000001	13.71939400000000	0.39711800000000	0.00000000000000	-0.06383000000000	0.00000000000000	23.43054500000000	0.00000000000000	0.00000000000000	10.07036900000000	0.00000000000000	
21.55992300000000	-52.91738600000000	783.19746299999997	51.24655200000000	0.13803900000000	0.00000000000000	0.10572500000000	-11.10620700000000	99.51211800000000	13.80059400000000	0.40041000000000	0.00000000000000	-0.06393100000000	0.00000000000000	23.40334100000000	0.00000000000000	0.00000000000000	10.26697400000000	0.00000000000000	
21.56158800000000	-53.71680300000000	779.92823399999997	50.83679400000000	0.13745400000000	0.00000000000000	0.10562400000000	-10.55835900000000	104.06505000000000	13.84313500000000	0.40354900000000	0.00000000000000	-0.06403300000000	0.00000000000000	23.37510700000000	0.00000000000000	0.00000000000000	10.43784800000000	0.00000000000000	
21.56325500000000	-54.52727400000000	776.51538300000004	50.40193600000000	0.13688700000000	0.00000000000000	0.10551900000000	-9.96670200000000	108.70775300000000	13.85564400000000	0.40653900000000	0.00000000000000	-0.06413900000000	0.00000000000000	23.34575400000000	0.00000000000000	0.00000000000000	10.58819100000000	0.00000000000000	
21.56492100000000	-55.34805900000000	772.95715099999995	49.94216600000000	0.13633700000000	0.00000000000000	0.10541000000000	-9.34111300000000	113.47148199999999	13.84455000000000	0.40938300000000	0.00000000000000	-0.06424800000000	0.00000000000000	23.31517800000000	0.00000000000000	0.00000000000000	10.72188800000000	0.00000000000000	
21.56658800000000	-56.17834200000000	769.25184200000001	49.45772100000000	0.13580300000000	0.00000000000000	0.10529700000000	-8.68828500000000	118.37818000000000	13.81399800000000	0.41208500000000	0.00000000000000	-0.06436200000000	0.00000000000000	23.28326200000000	0.00000000000000	0.00000000000000	10.84140500000000	0.00000000000000	
21.56826900000000	-57.01722400000000	765.39782300000002	48.94888300000000	0.13528500000000	0.00000000000000	0.10518100000000	-8.01193900000000	123.44059100000000	13.76595700000000	0.41464600000000	0.00000000000000	-0.06448000000000	0.00000000000000	23.24987600000000	0.00000000000000	0.00000000000000	10.94781000000000	0.00000000000000	
21.56992400000000	-57.86372700000000	761.39353300000005	48.41598000000000	0.13478000000000	0.00000000000000	0.10506200000000	-7.31320900000000	128.66301100000001	13.70045500000000	0.41706900000000	0.00000000000000	-0.06460300000000	0.00000000000000	23.21487700000000	0.00000000000000	0.00000000000000	11.04089400000000	0.00000000000000	
21.57159200000000	-58.71679000000000	757.23748100000000	47.85938700000000	0.13428800000000	0.00000000000000	0.10493800000000	-6.59114800000000	134.04250500000001	13.61593300000000	0.41935700000000	0.00000000000000	-0.06473200000000	0.00000000000000	23.17811000000000	0.00000000000000	0.00000000000000	11.11937900000000	0.00000000000000	
21.57325400000000	-59.57526700000000	752.92825700000003	47.27952200000000	0.13380800000000	0.00000000000000	0.10481200000000	-5.84329300000000	139.57040900000001	13.50963600000000	0.42151100000000	0.00000000000000	-0.06486600000000	0.00000000000000	23.13940700000000	0.00000000000000	0.00000000000000	11.18116100000000	0.00000000000000	
21.57492200000000	-60.43793000000000	748.46452999999997	46.67684800000000	0.13333800000000	0.00000000000000	0.10468200000000	-5.06624400000000	145.23395199999999	13.37803400000000	0.42353200000000	0.00000000000000	-0.06500700000000	0.00000000000000	23.09859000000000	0.00000000000000	0.00000000000000	11.22358800000000	0.00000000000000	
21.57659100000000	-61.30346300000000	743.84505999999999	46.05187000000000	0.13287700000000	0.00000000000000	0.10455000000000	-4.25619400000000	151.01785899999999	13.21721300000000	0.42542200000000	0.00000000000000	-0.06515300000000	0.00000000000000	23.05546800000000	0.00000000000000	0.00000000000000	11.24372000000000	0.00000000000000	
21.57825000000000	-62.17046900000000	739.06869700000004	45.40513500000000	0.13242300000000	0.00000000000000	0.10441400000000	-3.40939900000000	156.90582100000000	13.02323700000000	0.42718300000000	0.00000000000000	-0.06530600000000	0.00000000000000	23.00984300000000	0.00000000000000	0.00000000000000	11.23858200000000	0.00000000000000	
21.57992100000000	-63.03746500000000	734.13439100000005	44.73723200000000	0.13197400000000	0.00000000000000	0.10427600000000	-2.52255400000000	162.88174400000000	12.79243500000000	0.42881700000000	0.00000000000000	-0.06546500000000	0.00000000000000	22.96150600000000	0.00000000000000	0.00000000000000	11.20536500000000	0.00000000000000	
21.58159500000000	-63.90288800000000	729.04119300000002	44.04878800000000	0.13152900000000	0.00000000000000	0.10413600000000	-1.59306000000000	168.93073100000001	12.52162300000000	0.43032400000000	0.00000000000000	-0.06563000000000	0.00000000000000	22.91023900000000	0.00000000000000	0.00000000000000	11.14159300000000	0.00000000000000	
21.58325300000000	-64.76509100000000	723.78827000000001	43.34046800000000	0.13108600000000	0.00000000000000	0.10399300000000	-0.61920500000000	175.03978000000001	12.20825800000000	0.43170700000000	0.00000000000000	-0.06580200000000	0.00000000000000	22.85581800000000	0.00000000000000	0.00000000000000	11.04523600000000	0.00000000000000	
21.58492100000000	-65.62234800000000	718.37490300000002	42.61297600000000	0.13064400000000	0.00000000000000	0.10384800000000	0.39977000000000	181.19819799999999	11.85051300000000	0.43296700000000	0.00000000000000	-0.06598000000000	0.00000000000000	22.79801000000000	0.00000000000000	0.00000000000000	10.91477500000000	0.00000000000000	
21.58659100000000	-66.47285700000000	712.80050200000005	41.86704700000000	0.13020000000000	0.00000000000000	0.10370000000000	1.46366800000000	187.39776000000001	11.44729500000000	0.43410500000000	0.00000000000000	-0.06616400000000	0.00000000000000	22.73658000000000	0.00000000000000	0.00000000000000	10.74922900000000	0.00000000000000	
21.58825000000000	-67.31474100000000	707.06461000000002	41.10345500000000	0.12975200000000	0.00000000000000	0.10355100000000	2.57141500000000	193.63265100000001	10.99821400000000	0.43512400000000	0.00000000000000	-0.06635300000000	0.00000000000000	22.67128500000000	0.00000000000000	0.00000000000000	10.54813400000000	0.00000000000000	
21.58991900000000	-68.14605400000001	701.16691500000002	40.32300100000000	0.12930000000000	0.00000000000000	0.10340100000000	3.72117600000000	199.89923999999999	10.50350900000000	0.43602500000000	0.00000000000000	-0.06654900000000	0.00000000000000	22.60188000000000	0.00000000000000	0.00000000000000	10.31150900000000	0.00000000000000	
21.59158500000000	-68.96478100000000	695.10725800000000	39.52652000000000	0.12884000000000	0.00000000000000	0.10324900000000	4.91050500000000	206.19573800000001	9.96395400000000	0.43681100000000	0.00000000000000	-0.06675000000000	0.00000000000000	22.52811700000000	0.00000000000000	0.00000000000000	10.03978400000000	0.00000000000000	
